<?xml version="1.0" encoding="UTF-8" standalone="no"?>
<!DOCTYPE svg PUBLIC "-//W3C//DTD SVG 1.1//EN" "http://www.w3.org/Graphics/SVG/1.1/DTD/svg11.dtd">
<svg width="100%" height="100%" viewBox="0 0 4096 4096" version="1.1" xmlns="http://www.w3.org/2000/svg" xmlns:xlink="http://www.w3.org/1999/xlink" xml:space="preserve" xmlns:serif="http://www.serif.com/" style="fill-rule:evenodd;clip-rule:evenodd;stroke-linejoin:round;stroke-miterlimit:2;">
    <g id="Android" transform="matrix(7.11111,0,0,7.11111,0,473.322)">
        <path d="M420.55,301.93C407.384,301.93 396.55,291.096 396.55,277.93C396.55,264.764 407.384,253.93 420.55,253.93C433.716,253.93 444.55,264.764 444.55,277.93C444.55,291.096 433.716,301.93 420.55,301.93M155.45,301.93C142.284,301.93 131.45,291.096 131.45,277.93C131.45,264.764 142.284,253.93 155.45,253.93C168.616,253.93 179.45,264.764 179.45,277.93C179.45,291.096 168.616,301.93 155.45,301.93M429.15,157.45L477.09,74.45C478.196,72.802 478.786,70.862 478.786,68.878C478.786,63.392 474.272,58.878 468.786,58.878C464.987,58.878 461.502,61.043 459.82,64.45L411.28,148.52C332.897,113.365 243.103,113.365 164.72,148.52L116.18,64.45C114.498,61.043 111.013,58.878 107.214,58.878C101.728,58.878 97.214,63.392 97.214,68.878C97.214,70.862 97.804,72.802 98.91,74.45L146.85,157.45C64.53,202.22 8.24,285.55 0,384L576,384C567.76,285.55 511.46,202.22 429.15,157.45" style="fill-rule:nonzero;"/>
    </g>
</svg>
