<?xml version="1.0" encoding="UTF-8" standalone="no"?>
<!DOCTYPE svg PUBLIC "-//W3C//DTD SVG 1.1//EN" "http://www.w3.org/Graphics/SVG/1.1/DTD/svg11.dtd">
<svg width="100%" height="100%" viewBox="0 0 4096 4096" version="1.1" xmlns="http://www.w3.org/2000/svg" xmlns:xlink="http://www.w3.org/1999/xlink" xml:space="preserve" xmlns:serif="http://www.serif.com/" style="fill-rule:evenodd;clip-rule:evenodd;stroke-linejoin:round;stroke-miterlimit:2;">
    <g id="Apple" transform="matrix(9.14452,0,0,9.14452,290.423,-292.625)">
        <path d="M318.7,268.7C318.5,232 335.1,204.3 368.7,183.9C349.9,157 321.5,142.2 284,139.3C248.5,136.5 209.7,160 195.5,160C180.5,160 146.1,140.3 119.1,140.3C63.3,141.2 4,184.8 4,273.5C4,299.7 8.8,326.767 18.4,354.7C31.2,391.4 77.4,481.4 125.6,479.9C150.8,479.3 168.6,462 201.4,462C233.2,462 249.7,479.9 277.8,479.9C326.4,479.2 368.2,397.4 380.4,360.6C315.2,329.9 318.7,270.6 318.7,268.7ZM262.1,104.5C289.4,72.1 286.9,42.6 286.1,32C262,33.4 234.1,48.4 218.2,66.9C200.7,86.7 190.4,111.2 192.6,138.8C218.7,140.8 242.5,127.4 262.1,104.5Z" style="fill-rule:nonzero;"/>
    </g>
</svg>
