<?xml version="1.0" encoding="UTF-8" standalone="no"?>
<!DOCTYPE svg PUBLIC "-//W3C//DTD SVG 1.1//EN" "http://www.w3.org/Graphics/SVG/1.1/DTD/svg11.dtd">
<svg width="100%" height="100%" viewBox="0 0 4096 4096" version="1.1" xmlns="http://www.w3.org/2000/svg" xmlns:xlink="http://www.w3.org/1999/xlink" xml:space="preserve" xmlns:serif="http://www.serif.com/" style="fill-rule:evenodd;clip-rule:evenodd;stroke-linejoin:round;stroke-miterlimit:2;">
    <g id="App-Store" serif:id="App Store" transform="matrix(8.25806,0,0,8.25806,-66.0645,-66.0645)">
        <path d="M255.9,120.9L265,105.2C270.6,95.4 283.1,92.1 292.9,97.7C302.7,103.3 306,115.8 300.4,125.6L212.9,277.1L276.2,277.1C296.7,277.1 308.2,301.2 299.3,317.9L113.8,317.9C102.5,317.9 93.4,308.8 93.4,297.5C93.4,286.2 102.5,277.1 113.8,277.1L165.8,277.1L232.4,161.7L211.6,125.6C206,115.8 209.3,103.4 219.1,97.7C228.9,92.1 241.3,95.4 247,105.2L255.9,120.9ZM177.2,338.9L157.6,372.9C152,382.7 139.5,386 129.7,380.4C119.9,374.8 116.6,362.3 122.2,352.5L136.8,327.3C153.2,322.2 166.6,326.1 177.2,338.9ZM346.1,277.2L399.2,277.2C410.5,277.2 419.6,286.3 419.6,297.6C419.6,308.9 410.5,318 399.2,318L369.7,318L389.6,352.5C395.2,362.3 391.9,374.7 382.1,380.4C372.3,386 359.9,382.7 354.2,372.9C320.7,314.8 295.5,271.3 278.8,242.3C261.7,212.8 273.9,183.2 286,173.2C299.4,196.2 319.4,230.9 346.1,277.2ZM256,8C119,8 8,119 8,256C8,393 119,504 256,504C393,504 504,393 504,256C504,119 393,8 256,8ZM472,256C472,374.7 375.9,472 256,472C137.3,472 40,375.9 40,256C40,137.3 136.1,40 256,40C374.7,40 472,136.1 472,256Z" style="fill-rule:nonzero;"/>
    </g>
</svg>
