<?xml version="1.0" encoding="UTF-8" standalone="no"?>
<!DOCTYPE svg PUBLIC "-//W3C//DTD SVG 1.1//EN" "http://www.w3.org/Graphics/SVG/1.1/DTD/svg11.dtd">
<svg width="100%" height="100%" viewBox="0 0 4096 4096" version="1.1" xmlns="http://www.w3.org/2000/svg" xmlns:xlink="http://www.w3.org/1999/xlink" xml:space="preserve" xmlns:serif="http://www.serif.com/" style="fill-rule:evenodd;clip-rule:evenodd;stroke-linejoin:round;stroke-miterlimit:2;">
    <g id="Browser" transform="matrix(8.25806,0,0,8.25806,-66.0645,-66.0645)">
        <path d="M274.69,274.69L237.31,237.31L166,346L274.69,274.69ZM256,8C119,8 8,119 8,256C8,393 119,504 256,504C393,504 504,393 504,256C504,119 393,8 256,8ZM411.85,182.79L426.63,176.66C427.599,176.26 428.637,176.053 429.686,176.053C432.918,176.053 435.846,178.012 437.08,181C437.484,181.972 437.692,183.015 437.692,184.068C437.692,187.298 435.735,190.225 432.75,191.46L418,197.57C413.946,199.248 409.229,197.293 407.55,193.24C405.869,189.194 407.808,184.481 411.85,182.79ZM314.43,94L320.55,79.22C322.241,75.178 326.954,73.239 331,74.92C335.053,76.599 337.008,81.316 335.33,85.37L329.2,100.15C327.521,104.203 322.804,106.158 318.75,104.48C315.766,103.245 313.81,100.318 313.81,97.088C313.81,96.028 314.021,94.978 314.43,94ZM256,60C260.389,60 264,63.611 264,68L264,84C264,88.389 260.389,92 256,92C251.611,92 248,88.389 248,84L248,68C248,63.611 251.611,60 256,60ZM181,74.92C181.972,74.516 183.015,74.308 184.068,74.308C187.298,74.308 190.225,76.265 191.46,79.25L197.57,94C198.012,95.01 198.24,96.101 198.24,97.204C198.24,101.593 194.628,105.204 190.24,105.204C186.954,105.204 183.988,103.18 182.79,100.12L176.66,85.34C175.003,81.291 176.959,76.596 181,74.92ZM117.42,117.41C120.523,114.309 125.627,114.309 128.73,117.41L140,128.72C143.081,131.82 143.081,136.9 140,140C136.897,143.101 131.793,143.101 128.69,140L117.38,128.69C114.307,125.582 114.32,120.502 117.41,117.41L117.42,117.41ZM60,256C60,251.611 63.611,248 68,248L84,248C88.389,248 92,251.611 92,256C92,260.389 88.389,264 84,264L68,264C63.611,264 60,260.389 60,256ZM100.15,329.21L85.37,335.34C84.401,335.74 83.363,335.947 82.314,335.947C79.082,335.947 76.154,333.988 74.92,331C74.516,330.028 74.308,328.985 74.308,327.932C74.308,324.702 76.265,321.775 79.25,320.54L94,314.43C98.054,312.752 102.771,314.707 104.45,318.76C106.131,322.806 104.192,327.519 100.15,329.21ZM104.48,193.21C103.253,196.212 100.317,198.184 97.074,198.184C96.019,198.184 94.974,197.975 94,197.57L79.22,191.45C75.178,189.759 73.239,185.046 74.92,181C76.599,176.947 81.316,174.992 85.37,176.67L100.15,182.8C104.198,184.479 106.151,189.189 104.48,193.24L104.48,193.21ZM197.57,418L191.45,432.78C190.214,435.766 187.286,437.723 184.055,437.723C179.665,437.723 176.052,434.11 176.052,429.72C176.052,428.67 176.259,427.63 176.66,426.66L182.79,411.88C183.988,408.82 186.954,406.796 190.24,406.796C194.628,406.796 198.24,410.407 198.24,414.796C198.24,415.899 198.012,416.99 197.57,418ZM264,444C264,448.389 260.389,452 256,452C251.611,452 248,448.389 248,444L248,428C248,423.611 251.611,420 256,420C260.389,420 264,423.611 264,428L264,444ZM331,437.08C330.028,437.484 328.985,437.692 327.932,437.692C324.702,437.692 321.775,435.735 320.54,432.75L314.43,418C312.752,413.946 314.707,409.229 318.76,407.55C322.814,405.872 327.531,407.827 329.21,411.88L335.34,426.66C336.997,430.709 335.041,435.404 331,437.08ZM394.58,394.59C391.477,397.691 386.373,397.691 383.27,394.59L372,383.28C368.919,380.18 368.919,375.1 372,372C375.103,368.899 380.207,368.899 383.31,372L394.62,383.31C397.693,386.418 397.68,391.498 394.59,394.59L394.58,394.59ZM286.25,286.25L110.34,401.66L225.75,225.75L401.66,110.34L286.25,286.25ZM437.08,331C435.401,335.053 430.684,337.008 426.63,335.33L411.85,329.2C407.797,327.521 405.842,322.804 407.52,318.75C408.755,315.766 411.682,313.81 414.912,313.81C415.972,313.81 417.022,314.021 418,314.43L432.78,320.55C436.822,322.241 438.761,326.954 437.08,331ZM444,264L428,264C423.611,264 420,260.389 420,256C420,251.611 423.611,248 428,248L444,248C448.389,248 452,251.611 452,256C452,260.389 448.389,264 444,264Z" style="fill-rule:nonzero;"/>
    </g>
</svg>
