<?xml version="1.0" encoding="UTF-8" standalone="no"?>
<!DOCTYPE svg PUBLIC "-//W3C//DTD SVG 1.1//EN" "http://www.w3.org/Graphics/SVG/1.1/DTD/svg11.dtd">
<svg width="100%" height="100%" viewBox="0 0 4096 4096" version="1.1" xmlns="http://www.w3.org/2000/svg" xmlns:xlink="http://www.w3.org/1999/xlink" xml:space="preserve" xmlns:serif="http://www.serif.com/" style="fill-rule:evenodd;clip-rule:evenodd;stroke-linejoin:round;stroke-miterlimit:2;">
    <g id="_4chan" serif:id="4chan" transform="matrix(4.26802,0,0,4.26802,-137.229,-137.223)">
        <path d="M474.83,384.842C474.83,384.842 424.165,75.302 237.905,76.022C112.383,76.502 63.359,197.062 154.333,224.174C154.333,224.174 46.448,263.082 46.448,332.019C46.448,400.996 217.353,473.573 474.828,384.801L474.83,384.842ZM552.045,621.726C552.045,621.726 588.193,933.266 774.293,941.263C899.693,946.661 954.355,828.499 864.743,797.15C864.743,797.15 974.308,763.358 977.508,694.503C980.708,625.605 813.361,545.071 552.046,621.727L552.045,621.726ZM405.212,559.744C405.212,559.744 104.028,647.316 127.222,832.176C142.817,956.698 268.377,990.886 284.372,897.356C284.372,897.356 335.955,999.684 404.412,991.366C472.869,983.048 524.374,804.626 405.212,559.746L405.212,559.744ZM630.06,461.098C630.06,461.098 939.04,407.115 936.364,220.856C934.52,95.376 813.44,47.592 787.29,138.843C787.29,138.843 747.302,31.438 678.284,32.155C609.344,32.877 538.569,204.581 630.06,461.098Z" style="fill-rule:nonzero;"/>
    </g>
</svg>
