<?xml version="1.0" encoding="UTF-8" standalone="no"?>
<!DOCTYPE svg PUBLIC "-//W3C//DTD SVG 1.1//EN" "http://www.w3.org/Graphics/SVG/1.1/DTD/svg11.dtd">
<svg width="100%" height="100%" viewBox="0 0 4096 4096" version="1.1" xmlns="http://www.w3.org/2000/svg" xmlns:xlink="http://www.w3.org/1999/xlink" xml:space="preserve" xmlns:serif="http://www.serif.com/" style="fill-rule:evenodd;clip-rule:evenodd;stroke-linejoin:round;stroke-miterlimit:2;">
    <g id="Google-News" serif:id="Google News" transform="matrix(8.25806,0,0,8.25806,33.0323,-66.0645)">
        <path d="M488,261.8C488,403.3 391.1,504 248,504C110.8,504 0,393.2 0,256C0,118.8 110.8,8 248,8C314.8,8 371,32.5 414.3,72.9L346.8,137.8C258.5,52.6 94.3,116.6 94.3,256C94.3,342.5 163.4,412.6 248,412.6C346.2,412.6 383,342.2 388.8,305.7L248,305.7L248,220.4L484.1,220.4C486.4,233.1 488,245.3 488,261.8Z" style="fill-rule:nonzero;"/>
    </g>
</svg>
