<?xml version="1.0" encoding="UTF-8" standalone="no"?>
<!DOCTYPE svg PUBLIC "-//W3C//DTD SVG 1.1//EN" "http://www.w3.org/Graphics/SVG/1.1/DTD/svg11.dtd">
<svg width="100%" height="100%" viewBox="0 0 4096 4096" version="1.1" xmlns="http://www.w3.org/2000/svg" xmlns:xlink="http://www.w3.org/1999/xlink" xml:space="preserve" xmlns:serif="http://www.serif.com/" style="fill-rule:evenodd;clip-rule:evenodd;stroke-linejoin:round;stroke-miterlimit:2;">
    <g id="Google-Play" serif:id="Google Play" transform="matrix(8.00156,0,0,8.00156,-0.614639,1.36424e-12)">
        <path d="M325.3,234.3L104.6,13L385.4,174.2L325.3,234.3ZM47,0C34,6.8 25.3,19.2 25.3,35.3L25.3,476.6C25.3,492.7 34,505.1 47,511.9L303.6,255.9L47,0ZM472.2,225.6L413.3,191.5L347.6,256L413.3,320.5L473.4,286.4C491.4,272.1 491.4,239.9 472.2,225.6ZM104.6,499L385.4,337.8L325.3,277.7L104.6,499Z" style="fill-rule:nonzero;"/>
    </g>
</svg>
