<?xml version="1.0" encoding="UTF-8" standalone="no"?>
<!DOCTYPE svg PUBLIC "-//W3C//DTD SVG 1.1//EN" "http://www.w3.org/Graphics/SVG/1.1/DTD/svg11.dtd">
<svg width="100%" height="100%" viewBox="0 0 4096 4096" version="1.1" xmlns="http://www.w3.org/2000/svg" xmlns:xlink="http://www.w3.org/1999/xlink" xml:space="preserve" xmlns:serif="http://www.serif.com/" style="fill-rule:evenodd;clip-rule:evenodd;stroke-linejoin:round;stroke-miterlimit:2;">
    <g id="Lemmy" transform="matrix(170.666,0,0,170.666,-0.0042009,-0.0031286)">
        <path d="M2.959,4.223C2.849,4.224 2.738,4.231 2.627,4.242C1.749,4.343 0.958,4.812 0.473,5.628C-0.002,6.428 -0.12,7.309 0.123,8.125C0.365,8.941 0.952,9.683 1.821,10.27C1.826,10.274 1.831,10.278 1.837,10.281C2.583,10.731 3.329,11.025 4.125,11.181C4.105,11.513 4.098,11.85 4.119,12.199C4.182,13.242 4.555,14.2 5.115,15.048L3.109,15.867C3.006,15.908 2.924,15.989 2.881,16.091C2.815,16.246 2.85,16.426 2.969,16.546C3.047,16.624 3.153,16.669 3.263,16.669C3.318,16.669 3.372,16.659 3.422,16.638L5.632,15.734C6.04,16.22 6.501,16.666 7.004,17.052C7.024,17.067 7.045,17.079 7.064,17.095L5.773,18.805C5.722,18.876 5.694,18.961 5.694,19.048C5.694,19.276 5.882,19.464 6.11,19.464C6.237,19.464 6.358,19.406 6.437,19.306L7.751,17.567C8.469,18.022 9.229,18.36 9.98,18.592C10.363,19.313 11.118,19.779 12,19.779C12.891,19.779 13.644,19.278 14.024,18.572C14.768,18.337 15.52,17.999 16.232,17.545L17.564,19.306C17.642,19.41 17.765,19.472 17.896,19.472C18.103,19.472 18.279,19.317 18.308,19.112C18.323,19.003 18.294,18.893 18.228,18.805L16.918,17.07C16.926,17.063 16.936,17.059 16.944,17.052C17.441,16.671 17.899,16.234 18.306,15.758L20.461,16.637C20.672,16.723 20.916,16.62 21.002,16.41C21.023,16.359 21.034,16.305 21.034,16.251C21.034,16.082 20.931,15.93 20.775,15.866L18.831,15.074C19.408,14.22 19.801,13.255 19.882,12.204C19.908,11.854 19.906,11.513 19.89,11.178C20.68,11.021 21.422,10.728 22.163,10.281C22.169,10.277 22.174,10.273 22.18,10.269C23.048,9.682 23.636,8.941 23.878,8.124C24.12,7.308 24.003,6.427 23.528,5.627C23.043,4.811 22.251,4.342 21.373,4.241C21.262,4.229 21.152,4.223 21.041,4.222C20.255,4.207 19.418,4.451 18.612,4.916C18.019,5.258 17.487,5.783 17.069,6.355C15.899,5.685 14.376,5.307 12.505,5.277C12.335,5.274 12.164,5.274 11.994,5.277C9.909,5.311 8.24,5.707 6.98,6.421C6.977,6.418 6.975,6.41 6.972,6.406C6.549,5.815 5.999,5.27 5.388,4.917C4.583,4.452 3.745,4.209 2.96,4.223L2.959,4.223ZM3.245,4.959C3.802,5.001 4.415,5.195 5.024,5.547C5.509,5.827 6,6.302 6.37,6.816C6.197,6.943 6.031,7.079 5.873,7.225C4.953,8.077 4.412,9.185 4.205,10.458C3.524,10.318 2.887,10.064 2.221,9.664C1.466,9.151 1.005,8.541 0.821,7.919C0.636,7.295 0.713,6.648 1.098,6C1.473,5.37 2.026,5.046 2.71,4.967C2.888,4.948 3.067,4.945 3.245,4.96L3.245,4.959ZM20.755,4.959C20.933,4.945 21.112,4.947 21.29,4.967C21.974,5.045 22.527,5.369 22.902,5.999C23.287,6.647 23.364,7.295 23.179,7.919C22.995,8.541 22.534,9.15 21.779,9.663C21.121,10.059 20.491,10.31 19.819,10.452C19.625,9.155 19.082,8.018 18.153,7.15C18.003,7.011 17.846,6.88 17.682,6.758C18.047,6.268 18.511,5.815 18.976,5.546C19.585,5.195 20.198,5.001 20.755,4.959L20.755,4.959ZM12.006,6.004C12.168,6.001 12.331,6.001 12.493,6.004C14.883,6.043 16.578,6.674 17.656,7.682C18.806,8.757 19.298,10.282 19.155,12.149C19.024,13.856 17.935,15.377 16.503,16.473C15.809,17.004 15.041,17.408 14.278,17.702C14.281,17.657 14.292,17.613 14.292,17.567C14.295,16.371 13.36,15.354 12,15.354C10.639,15.354 9.678,16.369 9.708,17.575C9.709,17.626 9.722,17.672 9.726,17.722C8.945,17.429 8.157,17.021 7.448,16.477C6.025,15.382 4.949,13.864 4.845,12.155C4.732,10.298 5.223,8.816 6.366,7.758C7.509,6.7 9.352,6.047 12.006,6.004ZM8.364,12.833C7.759,12.833 7.268,13.323 7.268,13.929C7.268,14.536 7.759,15.028 8.364,15.028C8.969,15.028 9.461,14.536 9.461,13.929C9.461,13.323 8.969,12.833 8.364,12.833ZM15.646,12.844C15.046,12.844 14.559,13.33 14.559,13.931C14.559,14.531 15.046,15.019 15.646,15.019C16.246,15.019 16.733,14.531 16.733,13.931C16.733,13.33 16.246,12.844 15.646,12.844ZM12,16.084C13.024,16.084 13.565,16.722 13.563,17.566C13.562,18.351 12.891,19.051 12,19.051C11.083,19.051 10.46,18.489 10.437,17.558C10.415,16.724 10.976,16.084 12,16.084Z" style="fill-rule:nonzero;"/>
    </g>
</svg>
