<?xml version="1.0" encoding="UTF-8" standalone="no"?>
<!DOCTYPE svg PUBLIC "-//W3C//DTD SVG 1.1//EN" "http://www.w3.org/Graphics/SVG/1.1/DTD/svg11.dtd">
<svg width="100%" height="100%" viewBox="0 0 4096 4096" version="1.1" xmlns="http://www.w3.org/2000/svg" xmlns:xlink="http://www.w3.org/1999/xlink" xml:space="preserve" xmlns:serif="http://www.serif.com/" style="fill-rule:evenodd;clip-rule:evenodd;stroke-linejoin:round;stroke-miterlimit:2;">
    <g id="Linux" transform="matrix(7.99933,0,0,7.99933,255.362,0.0023132)">
        <path d="M220.8,123.3C221.8,123.8 222.6,125 223.8,125C224.9,125 226.6,124.6 226.7,123.5C226.9,122.1 224.8,121.2 223.5,120.6C221.8,119.9 219.6,119.6 218,120.5C217.6,120.7 217.2,121.2 217.4,121.6C217.7,122.9 219.7,122.7 220.8,123.3ZM198.9,125C200.1,125 200.9,123.8 201.9,123.3C203,122.7 205,122.9 205.4,121.7C205.6,121.3 205.2,120.8 204.8,120.6C203.2,119.7 201,120 199.3,120.7C198,121.3 195.9,122.2 196.1,123.6C196.2,124.6 197.9,125.1 198.9,125ZM420,403.8C416.4,399.8 414.7,392.2 412.8,384.1C411,376 408.9,367.3 402.3,361.7C401,360.6 399.7,359.6 398.3,358.8C397,358 395.6,357.3 394.2,356.8C403.4,329.5 399.8,302.3 390.5,277.7C379.1,247.6 359.2,221.3 344,203.3C326.9,181.8 310.3,161.4 310.6,131.3C311.1,85.4 315.7,0.1 234.8,0C132.4,-0.2 158,103.4 156.9,135.2C155.2,158.6 150.5,177 134.4,199.9C115.5,222.4 88.9,258.7 76.3,296.6C70.3,314.5 67.5,332.7 70.1,349.9C63.6,355.7 58.7,364.6 53.5,370.1C49.3,374.4 43.2,376 36.5,378.4C29.8,380.8 22.5,384.4 18,392.9C15.9,396.8 15.2,401 15.2,405.3C15.2,409.2 15.8,413.2 16.4,417.1C17.6,425.2 18.9,432.8 17.2,437.9C12,452.3 11.3,462.3 15,469.6C18.8,476.9 26.4,480.1 35.1,481.9C52.4,485.5 75.9,484.6 94.4,494.4C114.2,504.8 134.3,508.5 150.3,504.8C161.9,502.2 171.4,495.2 176.2,484.6C188.7,484.5 202.5,479.2 224.5,478C239.4,476.8 258.1,483.3 279.6,482.1C280.2,484.4 281,486.7 282.1,488.8L282.1,488.9C290.4,505.6 305.9,513.2 322.4,511.9C339,510.6 356.5,500.9 370.7,484C384.3,467.6 406.7,460.8 421.6,451.8C429,447.3 435,441.7 435.5,433.5C435.9,425.3 431.1,416.2 420,403.8ZM223.7,87.3C233.5,65.1 257.9,65.5 267.7,86.9C274.2,101.1 271.3,117.8 263.4,127.3C261.8,126.5 257.5,124.7 250.8,122.4C251.9,121.2 253.9,119.7 254.7,117.8C259.5,106 254.5,90.8 245.6,90.5C238.3,90 231.7,101.3 233.8,113.5C229.7,111.5 224.4,110 220.8,109.1C219.8,102.2 220.5,94.5 223.7,87.3ZM183,75.8C193.1,75.8 203.8,90 202.1,109.3C198.6,110.3 195,111.8 191.9,113.9C193.1,105 188.6,93.8 182.3,94.3C173.9,95 172.5,115.5 180.5,122.4C181.5,123.2 182.4,122.2 174.6,127.9C159,113.3 164.1,75.8 183,75.8ZM169.4,136.5C175.6,131.9 183,126.5 183.5,126C188.2,121.6 197,111.8 211.4,111.8C218.5,111.8 227,114.1 237.3,120.7C243.6,124.8 248.6,125.1 259.9,130C268.3,133.5 273.6,139.7 270.4,148.2C267.8,155.3 259.4,162.6 247.7,166.3C236.6,169.9 227.9,182.3 209.5,181.2C205.6,181 202.5,180.2 199.9,179.1C191.9,175.6 187.7,168.7 179.9,164.1C171.3,159.3 166.7,153.7 165.2,148.8C163.8,143.9 165.2,139.8 169.4,136.5ZM172.7,470.5C170,505.6 128.8,504.9 97.4,488.5C67.5,472.7 28.8,482 20.9,466.6C18.5,461.9 18.5,453.9 23.5,440.2L23.5,440C25.9,432.4 24.1,424 22.9,416.1C21.7,408.3 21.1,401.1 23.8,396.1C27.3,389.4 32.3,387 38.6,384.8C48.9,381.1 50.4,381.4 58.2,374.9C63.7,369.2 67.7,362 72.5,356.9C77.6,351.4 82.5,348.8 90.2,350C98.3,351.2 105.3,356.8 112.1,366L131.7,401.6C141.2,421.5 174.8,450 172.7,470.5ZM171.3,444.6C167.2,438 161.7,431 156.9,425C164,425 171.1,422.8 173.6,416.1C175.9,409.9 173.6,401.2 166.2,391.2C152.7,373 127.9,358.7 127.9,358.7C114.4,350.3 106.8,340 103.3,328.8C99.8,317.6 100.3,305.5 103,293.6C108.2,270.7 121.6,248.4 130.2,234.4C132.5,232.7 131,237.6 121.5,255.2C113,271.3 97.1,308.5 118.9,337.6C119.5,316.9 124.4,295.8 132.7,276.1C144.7,248.7 170,201.2 172,163.4C173.1,164.2 176.6,166.6 178.2,167.5C182.8,170.2 186.3,174.2 190.8,177.8C203.2,187.8 219.3,187 233.2,179C239.4,175.5 244.4,171.5 249.1,170C259,166.9 266.9,161.4 271.4,155C279.1,185.4 297.1,229.3 308.6,250.7C314.7,262.1 326.9,286.2 332.2,315.3C335.5,315.2 339.2,315.7 343.1,316.7C356.9,281 331.4,242.5 319.8,231.8C315.1,227.2 314.9,225.2 317.2,225.3C329.8,236.5 346.4,259 352.4,284.3C355.2,295.9 355.7,308 352.8,320C369.2,326.8 388.7,337.9 383.5,354.8C381.3,354.7 380.3,354.8 379.3,354.8C382.5,344.7 375.4,337.2 356.5,328.7C336.9,320.1 320.5,320.1 318.2,341.2C306.1,345.4 299.9,355.9 296.8,368.5C294,379.7 293.2,393.2 292.4,408.4C291.9,416.1 288.8,426.4 285.6,437.4C253.5,460.3 208.9,470.3 171.3,444.6ZM428.7,433.1C427.8,449.9 387.5,453 365.5,479.6C352.3,495.3 336.1,504 321.9,505.1C307.7,506.2 295.4,500.3 288.2,485.8C283.5,474.7 285.8,462.7 289.3,449.5C293,435.3 298.5,420.7 299.2,408.9C300,393.7 300.9,380.4 303.4,370.2C306,359.9 310,353 317.1,349.1C317.4,348.9 317.8,348.8 318.1,348.6C318.9,361.8 325.4,375.2 336.9,378.1C349.5,381.4 367.6,370.6 375.3,361.8C384.3,361.5 391,360.9 397.9,366.9C407.8,375.4 405,397.2 415,408.5C425.6,420.1 429,428 428.7,433.1ZM173.3,148.7C175.3,150.6 178,153.2 181.3,155.8C187.9,161 197.1,166.4 208.6,166.4C220.2,166.4 231.1,160.5 240.4,155.6C245.3,153 251.3,148.6 255.2,145.2C259.1,141.8 261.1,138.9 258.3,138.6C255.5,138.3 255.7,141.2 252.3,143.7C247.9,146.9 242.6,151.1 238.4,153.5C231,157.7 218.9,163.7 208.5,163.7C198.1,163.7 189.8,158.9 183.6,154C180.5,151.5 177.9,149 175.9,147.1C174.4,145.7 174,142.5 171.6,142.2C170.2,142.1 169.8,145.9 173.3,148.7Z" style="fill-rule:nonzero;"/>
    </g>
</svg>
