<?xml version="1.0" encoding="UTF-8" standalone="no"?>
<!DOCTYPE svg PUBLIC "-//W3C//DTD SVG 1.1//EN" "http://www.w3.org/Graphics/SVG/1.1/DTD/svg11.dtd">
<svg width="100%" height="100%" viewBox="0 0 4096 4096" version="1.1" xmlns="http://www.w3.org/2000/svg" xmlns:xlink="http://www.w3.org/1999/xlink" xml:space="preserve" xmlns:serif="http://www.serif.com/" style="fill-rule:evenodd;clip-rule:evenodd;stroke-linejoin:round;stroke-miterlimit:2;">
    <g id="Mastodon" transform="matrix(9.14139,0,0,9.14139,0.178535,-292.5)">
        <path d="M433,179.11C433,81.91 369.29,53.41 369.29,53.41C306.77,24.71 140.73,25.01 78.81,53.41C78.81,53.41 15.09,81.91 15.09,179.11C15.09,294.81 8.49,438.51 120.72,468.21C161.23,478.91 196.04,481.21 224.05,479.61C274.86,476.81 303.37,461.51 303.37,461.51L301.67,424.61C301.67,424.61 265.36,436.01 224.55,434.71C184.14,433.31 141.55,430.31 134.92,380.71C134.305,376.102 134.005,371.458 134.02,366.81C219.65,387.71 292.67,375.91 312.77,373.51C368.89,366.81 417.77,332.21 424,300.61C433.8,250.81 433,179.11 433,179.11ZM357.88,304.31L311.25,304.31L311.25,190.11C311.25,140.41 247.25,138.51 247.25,197.01L247.25,259.51L200.92,259.51L200.92,197C200.92,138.5 136.92,140.4 136.92,190.1L136.92,304.3L90.19,304.3C90.19,182.2 84.99,156.4 108.6,129.3C134.5,100.4 188.42,98.5 212.43,135.4L224.03,154.9L235.63,135.4C259.74,98.3 313.75,100.6 339.46,129.3C363.17,156.6 357.86,182.3 357.86,304.3L357.88,304.31Z" style="fill-rule:nonzero;"/>
    </g>
</svg>
