<?xml version="1.0" encoding="UTF-8" standalone="no"?>
<!DOCTYPE svg PUBLIC "-//W3C//DTD SVG 1.1//EN" "http://www.w3.org/Graphics/SVG/1.1/DTD/svg11.dtd">
<svg width="100%" height="100%" viewBox="0 0 4096 4096" version="1.1" xmlns="http://www.w3.org/2000/svg" xmlns:xlink="http://www.w3.org/1999/xlink" xml:space="preserve" xmlns:serif="http://www.serif.com/" style="fill-rule:evenodd;clip-rule:evenodd;stroke-linejoin:round;stroke-miterlimit:2;">
    <g id="Nitter" transform="matrix(7.0137,0,0,7.0137,-289.9,-289.9)">
        <path d="M98.133,44.8L94.667,48.4L94.667,618.267L98.133,621.867L101.733,625.334L218.267,625.334L221.867,621.867L225.333,618.267L225.333,453.2C225.333,316.4 225.6,288 227.067,288C228.133,288 281.867,362.8 346.667,454.267C411.334,545.867 465.6,621.734 467.2,622.934C469.734,625.067 474.534,625.334 517.467,625.334L564.934,625.334L568.534,621.867L572,618.267L572,48.4L568.534,44.8L564.934,41.333L448.4,41.333L444.8,44.8L441.334,48.4L441.334,213.467C441.334,350.267 441.067,378.667 439.6,378.667C438.534,378.667 384.8,303.867 320,212.267C255.333,120.8 201.067,44.933 199.467,43.733C196.933,41.6 192.133,41.333 149.2,41.333L101.733,41.333L98.133,44.8ZM310,240.933C378.267,337.334 435.867,418.4 438.134,420.8C442,424.934 442.934,425.334 450.267,425.334C457.2,425.334 458.8,424.8 461.867,421.867L465.334,418.267L465.334,65.333L548,65.333L548,601.334L514.4,601.2L480.667,601.2L356.667,425.734C288.533,329.333 230.8,248.267 228.533,245.867C224.667,241.733 223.733,241.333 216.4,241.333C209.467,241.333 207.867,241.867 204.8,244.8L201.333,248.4L201.333,601.334L118.667,601.334L118.667,65.333L152.4,65.467L186,65.467L310,240.933Z" style="fill-rule:nonzero;"/>
    </g>
</svg>
