<?xml version="1.0" encoding="UTF-8" standalone="no"?>
<!DOCTYPE svg PUBLIC "-//W3C//DTD SVG 1.1//EN" "http://www.w3.org/Graphics/SVG/1.1/DTD/svg11.dtd">
<svg width="100%" height="100%" viewBox="0 0 4096 4096" version="1.1" xmlns="http://www.w3.org/2000/svg" xmlns:xlink="http://www.w3.org/1999/xlink" xml:space="preserve" xmlns:serif="http://www.serif.com/" style="fill-rule:evenodd;clip-rule:evenodd;stroke-linejoin:round;stroke-miterlimit:2;">
    <g id="Reddit" transform="matrix(8.63308,0,0,8.63308,-161.895,-161.638)">
        <path d="M440.3,203.5C425.3,203.5 412.1,209.7 402.4,219.4C366.7,194.7 318.6,178.8 265.3,177.1L293,52.3L381.2,72.1C381.2,93.7 398.8,111.3 420.4,111.3C442.4,111.3 460.1,93.2 460.1,71.6C460.1,50 442.5,31.9 420.4,31.9C405,31.9 391.7,41.2 385.1,53.9L287.7,32.3C282.8,31 278,34.5 276.7,39.4L246.3,177C193.4,179.2 145.8,195.1 110,219.8C100.3,209.7 86.6,203.5 71.6,203.5C16,203.5 -2.2,278.1 48.7,303.6C46.9,311.5 46.1,319.9 46.1,328.3C46.1,412.1 140.5,480 256.4,480C372.8,480 467.2,412.1 467.2,328.3C467.2,319.9 466.3,311.1 464.1,303.2C514,277.6 495.6,203.5 440.3,203.5ZM129.4,308.9C129.4,286.9 147,269.2 169.1,269.2C190.7,269.2 208.3,286.8 208.3,308.9C208.3,330.5 190.7,348.1 169.1,348.1C147.1,348.2 129.4,330.5 129.4,308.9ZM343.7,402.4C307.3,438.8 204.6,438.8 168.2,402.4C164.2,398.9 164.2,392.7 168.2,388.7C171.7,385.2 177.9,385.2 181.4,388.7C209.2,417.2 301.4,417.7 330.4,388.7C333.9,385.2 340.1,385.2 343.6,388.7C347.7,392.7 347.7,398.9 343.7,402.4ZM342.9,348.2C321.3,348.2 303.7,330.6 303.7,309C303.7,287 321.3,269.3 342.9,269.3C364.9,269.3 382.6,286.9 382.6,309C382.5,330.5 364.9,348.2 342.9,348.2Z" style="fill-rule:nonzero;"/>
    </g>
</svg>
