<?xml version="1.0" encoding="UTF-8" standalone="no"?>
<!DOCTYPE svg PUBLIC "-//W3C//DTD SVG 1.1//EN" "http://www.w3.org/Graphics/SVG/1.1/DTD/svg11.dtd">
<svg width="100%" height="100%" viewBox="0 0 4096 4096" version="1.1" xmlns="http://www.w3.org/2000/svg" xmlns:xlink="http://www.w3.org/1999/xlink" xml:space="preserve" xmlns:serif="http://www.serif.com/" style="fill-rule:evenodd;clip-rule:evenodd;stroke-linejoin:round;stroke-miterlimit:2;">
    <g id="RSS" transform="matrix(120.471,0,0,120.471,-722.824,-963.765)">
        <path d="M10.9,42C9.533,42 8.375,41.525 7.425,40.575C6.475,39.625 6,38.467 6,37.1C6,35.733 6.475,34.575 7.425,33.625C8.375,32.675 9.533,32.2 10.9,32.2C12.267,32.2 13.425,32.675 14.375,33.625C15.325,34.575 15.8,35.733 15.8,37.1C15.8,38.467 15.325,39.625 14.375,40.575C13.425,41.525 12.267,42 10.9,42ZM35.5,42C35.5,37.933 34.725,34.108 33.175,30.525C31.625,26.942 29.517,23.817 26.85,21.15C24.183,18.483 21.058,16.375 17.475,14.825C13.892,13.275 10.067,12.5 6,12.5L6,8C10.7,8 15.108,8.892 19.225,10.675C23.342,12.458 26.942,14.892 30.025,17.975C33.108,21.058 35.542,24.658 37.325,28.775C39.108,32.892 40,37.3 40,42L35.5,42ZM23.6,42C23.6,36.733 21.983,32.417 18.75,29.05C15.517,25.683 11.267,24 6,24L6,19.5C9.233,19.5 12.2,20.067 14.9,21.2C17.6,22.333 19.925,23.9 21.875,25.9C23.825,27.9 25.35,30.275 26.45,33.025C27.55,35.775 28.1,38.767 28.1,42L23.6,42Z" style="fill-rule:nonzero;"/>
    </g>
</svg>
