<?xml version="1.0" encoding="UTF-8" standalone="no"?>
<!DOCTYPE svg PUBLIC "-//W3C//DTD SVG 1.1//EN" "http://www.w3.org/Graphics/SVG/1.1/DTD/svg11.dtd">
<svg width="100%" height="100%" viewBox="0 0 4096 4096" version="1.1" xmlns="http://www.w3.org/2000/svg" xmlns:xlink="http://www.w3.org/1999/xlink" xml:space="preserve" xmlns:serif="http://www.serif.com/" style="fill-rule:evenodd;clip-rule:evenodd;stroke-linejoin:round;stroke-miterlimit:2;">
    <g id="StackOverflow" transform="matrix(9.14286,0,0,9.14286,292.571,-292.571)">
        <path d="M290.7,311L95,269.7L86.8,309L282.5,350L290.7,311ZM341.7,224L188.2,95.7L162.7,126.5L316.2,254.8L341.7,224ZM310.5,263.7L129.2,179L112.5,215.5L293.7,300L310.5,263.7ZM262,32L230,56L349.3,216.3L381.3,192.3L262,32ZM282.5,360L82.5,360L82.5,399.7L282.5,399.7L282.5,360ZM322.2,440L42.7,440L42.7,320L2.7,320L2.7,480L362.2,480L362.2,320L322.2,320L322.2,440Z" style="fill-rule:nonzero;"/>
    </g>
</svg>
