<?xml version="1.0" encoding="UTF-8" standalone="no"?>
<!DOCTYPE svg PUBLIC "-//W3C//DTD SVG 1.1//EN" "http://www.w3.org/Graphics/SVG/1.1/DTD/svg11.dtd">
<svg width="100%" height="100%" viewBox="0 0 4096 4096" version="1.1" xmlns="http://www.w3.org/2000/svg" xmlns:xlink="http://www.w3.org/1999/xlink" xml:space="preserve" xmlns:serif="http://www.serif.com/" style="fill-rule:evenodd;clip-rule:evenodd;stroke-linejoin:round;stroke-miterlimit:2;">
    <g id="Tumblr" transform="matrix(8,0,0,8,768.07,1.42204e-13)">
        <path d="M309.8,480.3C296.2,494.8 259.8,512 212.4,512C91.6,512 65.4,423.2 65.4,371.4L65.4,227.4L17.9,227.4C12.4,227.4 7.9,222.9 7.9,217.4L7.9,149.4C7.9,142.2 12.4,135.8 19.2,133.4C81.2,111.6 100.7,57.4 103.5,16.3C104.3,5.3 110,-0 119.6,-0L190.5,-0C196,-0 200.5,4.5 200.5,10L200.5,125.2L283.5,125.2C289,125.2 293.5,129.6 293.5,135.1L293.5,216.8C293.5,222.3 289,226.8 283.5,226.8L200.1,226.8L200.1,360C200.1,394.2 223.8,413.6 268.1,395.8C272.9,393.9 277.1,392.6 280.8,393.6C284.3,394.5 286.6,397 288.2,401.5L310.2,465.8C312,470.8 313.5,476.4 309.8,480.3Z" style="fill-rule:nonzero;"/>
    </g>
</svg>
