<?xml version="1.0" encoding="UTF-8" standalone="no"?>
<!DOCTYPE svg PUBLIC "-//W3C//DTD SVG 1.1//EN" "http://www.w3.org/Graphics/SVG/1.1/DTD/svg11.dtd">
<svg width="100%" height="100%" viewBox="0 0 4096 4096" version="1.1" xmlns="http://www.w3.org/2000/svg" xmlns:xlink="http://www.w3.org/1999/xlink" xml:space="preserve" xmlns:serif="http://www.serif.com/" style="fill-rule:evenodd;clip-rule:evenodd;stroke-linejoin:round;stroke-miterlimit:2;">
    <g id="YouTube" transform="matrix(7.49999,0,0,7.49999,-111.997,128.002)">
        <path d="M549.655,124.083C543.374,100.433 524.868,81.807 501.371,75.486C458.781,64 288,64 288,64C288,64 117.22,64 74.629,75.486C51.132,81.808 32.626,100.433 26.345,124.083C14.933,166.95 14.933,256.388 14.933,256.388C14.933,256.388 14.933,345.826 26.345,388.693C32.626,412.343 51.132,430.193 74.629,436.514C117.22,448 288,448 288,448C288,448 458.78,448 501.371,436.514C524.868,430.193 543.374,412.343 549.655,388.693C561.067,345.826 561.067,256.388 561.067,256.388C561.067,256.388 561.067,166.95 549.655,124.083ZM232.145,337.591L232.145,175.185L374.884,256.39L232.145,337.591Z" style="fill-rule:nonzero;"/>
    </g>
</svg>
